<svg width="30" height="30" viewBox="0 0 30 30" fill="none" xmlns="http://www.w3.org/2000/svg">
<path d="M14.9997 10.3139C12.4192 10.3139 10.3134 12.4198 10.3134 15.0003C10.3134 17.5807 12.4192 19.6866 14.9997 19.6866C17.5801 19.6866 19.686 17.5807 19.686 15.0003C19.686 12.4198 17.5801 10.3139 14.9997 10.3139ZM29.0551 15.0003C29.0551 13.0596 29.0727 11.1366 28.9637 9.19948C28.8548 6.94948 28.3415 4.95261 26.6962 3.3073C25.0473 1.65847 23.054 1.1487 20.804 1.03972C18.8633 0.930733 16.9403 0.948311 15.0032 0.948311C13.0626 0.948311 11.1395 0.930733 9.20241 1.03972C6.95241 1.1487 4.95554 1.66198 3.31023 3.3073C1.6614 4.95612 1.15163 6.94948 1.04265 9.19948C0.933663 11.1401 0.951241 13.0632 0.951241 15.0003C0.951241 16.9374 0.933663 18.8639 1.04265 20.801C1.15163 23.051 1.66491 25.0479 3.31023 26.6932C4.95905 28.3421 6.95241 28.8518 9.20241 28.9608C11.143 29.0698 13.0661 29.0522 15.0032 29.0522C16.9438 29.0522 18.8669 29.0698 20.804 28.9608C23.054 28.8518 25.0509 28.3385 26.6962 26.6932C28.345 25.0444 28.8548 23.051 28.9637 20.801C29.0762 18.8639 29.0551 16.9409 29.0551 15.0003ZM14.9997 22.2108C11.0094 22.2108 7.78913 18.9905 7.78913 15.0003C7.78913 11.01 11.0094 7.78972 14.9997 7.78972C18.9899 7.78972 22.2102 11.01 22.2102 15.0003C22.2102 18.9905 18.9899 22.2108 14.9997 22.2108ZM22.5055 9.17839C21.5739 9.17839 20.8216 8.42604 20.8216 7.4944C20.8216 6.56276 21.5739 5.81042 22.5055 5.81042C23.4372 5.81042 24.1895 6.56276 24.1895 7.4944C24.1898 7.71563 24.1464 7.93473 24.0619 8.13917C23.9774 8.3436 23.8533 8.52935 23.6969 8.68578C23.5405 8.84221 23.3547 8.96624 23.1503 9.05077C22.9459 9.1353 22.7268 9.17867 22.5055 9.17839Z" fill="white"/>
</svg>
