<svg width="32" height="32" viewBox="0 0 32 32" fill="none" xmlns="http://www.w3.org/2000/svg">
<path d="M16 0.25C7.30234 0.25 0.25 7.30234 0.25 16C0.25 24.6977 7.30234 31.75 16 31.75C24.6977 31.75 31.75 24.6977 31.75 16C31.75 7.30234 24.6977 0.25 16 0.25ZM8.125 12.8008C8.13401 12.3592 8.31576 11.9387 8.63125 11.6296C8.94674 11.3205 9.37082 11.1474 9.8125 11.1474C10.2542 11.1474 10.6783 11.3205 10.9937 11.6296C11.3092 11.9387 11.491 12.3592 11.5 12.8008C11.491 13.2424 11.3092 13.6628 10.9937 13.9719C10.6783 14.2811 10.2542 14.4542 9.8125 14.4542C9.37082 14.4542 8.94674 14.2811 8.63125 13.9719C8.31576 13.6628 8.13401 13.2424 8.125 12.8008ZM16 22.3633C12.9941 22.3633 10.5297 19.9973 10.375 17.0336C10.3731 16.9955 10.379 16.9574 10.3922 16.9216C10.4055 16.8859 10.4259 16.8532 10.4522 16.8256C10.4785 16.7979 10.5102 16.776 10.5453 16.761C10.5803 16.7459 10.6181 16.7382 10.6562 16.7383H12.3473C12.4949 16.7383 12.6215 16.8508 12.632 16.9984C12.7656 18.7387 14.2246 20.1133 16 20.1133C17.7754 20.1133 19.2379 18.7387 19.368 16.9984C19.3785 16.8508 19.5051 16.7383 19.6527 16.7383H21.3438C21.3819 16.7382 21.4197 16.7459 21.4547 16.761C21.4898 16.776 21.5215 16.7979 21.5478 16.8256C21.5741 16.8532 21.5945 16.8859 21.6078 16.9216C21.621 16.9574 21.6269 16.9955 21.625 17.0336C21.4703 19.9973 19.0059 22.3633 16 22.3633ZM22.1875 14.4883C21.7459 14.4793 21.3254 14.2975 21.0163 13.982C20.7072 13.6665 20.5341 13.2425 20.5341 12.8008C20.5341 12.3591 20.7072 11.935 21.0163 11.6195C21.3254 11.304 21.7459 11.1223 22.1875 11.1133C22.6291 11.1223 23.0496 11.304 23.3587 11.6195C23.6678 11.935 23.8409 12.3591 23.8409 12.8008C23.8409 13.2425 23.6678 13.6665 23.3587 13.982C23.0496 14.2975 22.6291 14.4793 22.1875 14.4883Z" fill="black"/>
</svg>
