<svg width="525" height="488" viewBox="0 0 525 488" fill="none" xmlns="http://www.w3.org/2000/svg">
<path d="M240 8.39993C232.667 12.7999 206.533 27.8666 182 41.9999C157.467 56.1333 124.4 75.1999 108.667 84.2666C92.9333 93.4666 78.1333 102.667 75.7333 104.933C73.3333 107.2 69.7333 112.4 67.7333 116.533L64 124V192.533V261.2L76 270.267L88 279.467L88.6667 204.267C89.3333 136.4 89.6 128.933 91.6 125.733C93.0667 123.6 107.2 114.533 128.267 102.4C147.2 91.4666 182.8 70.7999 207.333 56.5333C232.933 41.7333 253.467 30.6666 255.333 30.6666C257.2 30.6666 277.733 41.7333 303.333 56.5333C423.333 126.133 417.2 122.4 419.6 127.333C421.733 131.6 422 138.267 422 205.733V279.467L426.4 276.533C428.667 274.933 434.4 270.533 439.067 266.8L447.467 260.133L447.067 192.667L446.667 125.333L442.933 117.333C436.533 103.6 439.733 105.867 373.333 67.7333C354.267 56.7999 320.267 37.1999 297.867 24.2666C275.467 11.3333 256.267 0.666599 255.2 0.666599C254.133 0.666599 247.333 4.13327 240 8.39993Z" fill="white"/>
<path d="M239.333 48.5333C230.933 53.4666 205.467 68.2666 182.667 81.3333C110 123.2 100 129.067 99.0667 130.533C98.5333 131.333 98 166.533 98 208.8V285.6L111.733 292.8C145.6 310.667 177.067 321.733 212.667 328.267C230.533 331.467 280.133 331.467 298 328.267C331.067 322.133 357.067 313.333 389.733 297.2L412.667 285.867V208.933C412.667 166.667 412.133 131.333 411.6 130.533C410.533 128.933 404.533 125.333 362.667 101.2C345.067 91.0666 313.6 73.0666 292.933 61.0666C272.133 49.0666 254.933 39.3333 254.933 39.4666C254.8 39.4666 247.733 43.5999 239.333 48.5333ZM259.333 87.8666C263.6 97.0666 263.2 96.9333 277.067 98.7999C280.533 99.1999 283.333 99.9999 283.333 100.4C283.333 100.8 280.267 104 276.4 107.467L269.467 113.867L271.067 123.467C272 128.8 272.533 133.333 272.133 133.6C271.867 133.867 267.733 132 263.067 129.467L254.4 124.8L246.133 129.467C241.467 132 237.467 133.867 237.067 133.467C236.667 133.067 237.2 128.667 238.133 123.467L239.733 114.133L232.933 107.467C229.067 103.867 226 100.667 226 100.4C226 99.9999 230.4 98.9333 235.733 98.1333L245.467 96.5333L249.733 87.9999C252 83.1999 254.267 79.3333 254.8 79.3333C255.2 79.3333 257.2 83.1999 259.333 87.8666ZM196 124.667C197.333 127.333 199.067 128.667 201.067 128.667C206.667 128.667 207.6 130.533 204 134C201.067 136.8 200.667 138 201.467 142.4L202.267 147.6L198 145.333C193.867 143.2 192.267 143.2 186.8 145.467C184.533 146.4 184.267 146 185.067 141.733C185.6 137.867 185.2 136.4 182.667 134C178.8 130.4 179.467 128.667 184.533 128.667C187.467 128.667 188.667 127.733 190 124.667C190.933 122.4 192.133 120.667 192.8 120.667C193.467 120.667 194.8 122.4 196 124.667ZM318.667 124.667C320.267 127.733 321.6 128.667 324.667 128.667C329.867 128.667 330.533 130.4 326.8 133.867C324.133 136.4 323.733 137.733 324.267 142.133L325.067 147.333L320.667 145.2C316.667 143.2 316 143.2 311.6 145.2L306.933 147.467L307.867 142.267C308.533 137.867 308.133 136.667 305.333 134C301.733 130.533 302.667 128.667 308.267 128.667C310.267 128.667 312 127.333 313.333 124.667C314.533 122.4 315.733 120.667 316 120.667C316.267 120.667 317.467 122.4 318.667 124.667Z" fill="white"/>
<path d="M68 354.933C69.4667 362.933 76.1333 379.067 82.5333 390.4C93.4667 409.6 108.133 425.333 126 437.2C142.133 447.867 140.8 447.333 228.4 477.733L255.333 487.2L282.4 477.733C373.067 446.133 368.133 448 385.333 436.8C403.2 425.2 421.867 403.6 432.4 382.667C436.4 374.533 443.333 355.067 443.333 351.867C443.333 350.933 438.4 353.333 431.6 357.867C425.2 362.267 417.733 366.8 415.067 368C411.733 369.6 409.067 372.4 406.667 376.8C396.8 395.067 379.067 412.4 360.4 422C354.4 425.2 335.733 432.4 318.8 438.267C301.867 444.133 280.667 451.467 271.733 454.533L255.333 460.133L239.067 454.533C230 451.467 208.8 444.133 191.867 438.267C174.933 432.4 156.267 425.2 150.267 422C131.6 412.4 114.267 395.467 103.733 376.667C101.333 372.4 98.5333 369.467 95.3333 368C92.8 366.8 85.3333 362.133 78.8 357.867L67.0667 349.867L68 354.933Z" fill="white"/>
<path d="M115.333 379.2C115.333 381.867 130.8 398.4 139.467 404.933C152.8 414.933 156.933 416.8 187.867 427.6C202.667 432.667 223.733 440 234.933 443.867L255.2 451.067L276.267 443.733C287.867 439.733 307.867 432.8 320.667 428.4C349.867 418.4 358.8 414.133 371.2 404.933C379.867 398.4 395.333 381.867 395.333 379.2C395.333 378.667 390.8 380.267 385.2 382.8C362.667 393.067 325.867 403.867 298.667 408.133C278.267 411.467 232.4 411.467 212 408.133C184.8 403.867 148 393.067 125.467 382.8C119.867 380.267 115.333 378.667 115.333 379.2Z" fill="white"/>
<path d="M58.5661 228C59.0783 232.523 59.1248 237.061 58.7701 242.062C54.8485 242.86 50.5761 241.024 49.0599 247.846C49.0039 266.245 49.0243 284.07 48.9366 301.893C48.9264 303.969 48.3188 306.041 47.9882 308.114C32.1544 309.067 16.3206 310.019 0 311C3.63509 296.576 13.1721 288.037 21.8766 278.694C11.0317 267.969 4.1657 254.318 0.0596296 239.419C11.6353 236 22.4813 232.083 33.5537 229.764C41.5805 228.084 49.9073 228.522 58.5661 228Z" fill="white"/>
<path d="M57.3147 344.582C51.094 337.913 48.3166 330.226 49.1421 320.373C49.2051 300.228 49.1725 281.198 49.3333 262.169C49.3443 260.857 50.7987 259.554 51.774 258.637C55.0235 261.59 58.0808 264.153 61.1858 267.17C61.3727 268.401 61.2008 269.561 61.6977 269.895C69.8005 275.34 77.9879 280.681 86.518 286.122C87.1243 286.235 87.3687 286.271 87.8139 286.676C89.7389 288.044 91.463 289.044 93.3681 290.323C93.9544 290.828 94.3598 291.053 95.0156 291.604C96.8937 292.565 98.5435 293.156 100.145 293.839C118.403 301.627 136.199 310.529 155.009 316.978C185.224 327.337 216.189 335.82 249.194 333.543C262.999 332.59 276.695 334.287 290.733 331.727C310.76 328.075 330.863 324.73 349.635 317.574C370.417 309.652 390.392 299.973 411.099 291.041C412.019 290.612 412.559 290.201 413.279 289.432C415.101 288.105 416.744 287.136 418.848 286.156C419.613 286.107 419.918 286.069 420.586 285.829C425.11 282.972 429.523 280.585 433.361 277.587C437.59 274.283 441.291 270.417 445.532 266.716C446.232 266.429 446.495 266.128 447.038 265.537C449.389 263.744 451.331 262.149 453.62 260.337C454.44 259.087 454.912 258.055 455.385 257.022C456.021 257.449 456.657 257.876 457.293 258.303C457.293 276.581 457.293 294.86 457.293 313.741C458.069 312.867 458.519 312.598 458.52 312.328C458.592 293.557 458.688 274.785 458.54 256.016C458.53 254.749 456.665 253.494 455.737 252.214C455.811 252.194 455.868 252.324 455.814 251.987C455.328 251.456 454.896 251.263 453.887 251.039C450.611 251.048 447.911 251.088 445.153 250.561C445.142 245.447 445.189 240.9 445.236 236.353C464.953 234.629 483.564 239.546 502.278 244.069C509.152 245.73 516.232 246.681 524.327 248.159C517.543 262.989 509.503 276.923 495.462 286.73C505.288 296.78 515.144 306.862 525 316.943C524.689 317.621 524.379 318.298 524.068 318.976C521.978 319.406 519.849 320.324 517.804 320.189C501.671 319.116 485.572 317.543 469.426 316.735C458.621 316.194 458.14 317.258 457.135 326.727C456.469 333.001 454.705 339.116 448.83 344.265C447.692 345.559 447.173 346.382 446.655 347.206C446.621 347.615 446.415 347.931 445.297 348.265C443.921 349.141 443.283 349.904 442.645 350.668C442.645 350.668 442.626 350.726 442.347 350.771C441.742 350.912 441.468 351.08 441.246 351.319C441.246 351.319 441.422 351.605 440.819 351.539C430.886 356.602 421.737 362.042 412.124 366.686C408.858 368.264 405.875 369.236 404.756 372.751C400.604 374.304 396.928 375.977 392.758 377.563C392.042 377.49 391.799 377.455 391.603 377.526C380.906 381.379 370.337 385.563 359.485 389.01C348.658 392.449 337.291 394.552 326.634 398.344C316.054 402.108 304.839 401.577 294.019 403.641C268.739 408.465 242.756 407.413 217.198 404.724C191.25 401.993 165.972 395.965 141.506 387.403C132.061 384.097 122.577 380.884 112.683 377.422C108.555 375.64 104.856 374.066 100.964 372.096C97.6617 369.911 94.5397 368.14 91.4441 366.332C82.8705 361.323 74.3078 356.299 65.7409 351.281C65.3255 351.079 64.9101 350.876 64.0651 350.206C62.7349 349.265 61.8344 348.791 60.9338 348.317C60.4829 348.285 60.1353 348.095 59.7734 347.088C58.8752 345.812 58.095 345.197 57.3147 344.582Z" fill="white"/>
</svg>
