<svg width="32" height="32" viewBox="0 0 32 32" fill="none" xmlns="http://www.w3.org/2000/svg">
<path d="M16 0.25C7.30234 0.25 0.25 7.30234 0.25 16C0.25 24.6977 7.30234 31.75 16 31.75C24.6977 31.75 31.75 24.6977 31.75 16C31.75 7.30234 24.6977 0.25 16 0.25ZM23.5691 12.1223C23.5797 12.2875 23.5797 12.4598 23.5797 12.6285C23.5797 17.7895 19.6492 23.7344 12.4668 23.7344C10.252 23.7344 8.19883 23.091 6.46914 21.9836C6.78555 22.0188 7.08789 22.0328 7.41133 22.0328C9.23945 22.0328 10.9199 21.4141 12.2594 20.3664C10.5437 20.3313 9.10234 19.2063 8.61016 17.6594C9.21133 17.7473 9.75273 17.7473 10.3715 17.5891C9.4881 17.4096 8.69409 16.9298 8.12435 16.2313C7.55462 15.5327 7.24429 14.6585 7.24609 13.757V13.7078C7.76289 13.9996 8.37109 14.1789 9.00742 14.2035C8.47249 13.847 8.0338 13.364 7.73023 12.7974C7.42667 12.2307 7.26762 11.5979 7.26719 10.9551C7.26719 10.2273 7.45703 9.56289 7.79805 8.98633C8.77856 10.1934 10.0021 11.1806 11.3891 11.8838C12.7762 12.587 14.2957 12.9905 15.8488 13.068C15.2969 10.4137 17.2797 8.26562 19.6633 8.26562C20.7883 8.26562 21.8008 8.73672 22.5145 9.49609C23.3969 9.33086 24.2406 9.00039 24.993 8.55742C24.7012 9.46094 24.0895 10.2238 23.2773 10.7055C24.0648 10.6211 24.8242 10.4031 25.5273 10.0973C24.9965 10.8777 24.332 11.5703 23.5691 12.1223Z" fill="white"/>
</svg>
